<svg width="20" height="20" viewBox="0 0 20 20" fill="none" xmlns="http://www.w3.org/2000/svg">
<rect width="20" height="20" fill="#E5E5E5"/>
<g id="Desktop" clip-path="url(#clip0_25368_2)">
<rect width="1280" height="5025" transform="translate(-311 -3413)" fill="white"/>
<g id="Our Barbers ">
<rect id="Bg" x="-311" y="-728" width="1280" height="890" fill="#F7F7F7"/>
<g id="Card_1">
<g id="text">
<g id="Social links">
<g id="Ellipse">
<path id="Ellipse_2" d="M32 10C32 16.0751 29.5376 21.5751 25.5564 25.5564C21.5751 29.5376 16.0751 32 10 32C3.92487 32 -1.57513 29.5376 -5.55635 25.5564C-9.53757 21.5751 -12 16.0751 -12 10C-12 3.92487 -9.53757 -1.57513 -5.55635 -5.55635C-1.57513 -9.53757 3.92487 -12 10 -12C16.0751 -12 21.5751 -9.53757 25.5564 -5.55635C29.5376 -1.57513 32 3.92487 32 10Z" fill="white"/>
<g id="linkedin 1" clip-path="url(#clip1_25368_2)">
<path id="Vector" d="M19.995 20.0001V19.9993H20V12.6643C20 9.07593 19.2275 6.31177 15.0325 6.31177C13.0158 6.31177 11.6625 7.41843 11.11 8.4676H11.0517V6.64677H7.07416V19.9993H11.2158V13.3876C11.2158 11.6468 11.5458 9.96343 13.7017 9.96343C15.8258 9.96343 15.8575 11.9501 15.8575 13.4993V20.0001H19.995Z" fill="#303030"/>
<path id="Vector_2" d="M0.329987 6.64746H4.47665V20H0.329987V6.64746Z" fill="#303030"/>
<path id="Vector_3" d="M2.40167 0C1.07583 0 0 1.07583 0 2.40167C0 3.7275 1.07583 4.82583 2.40167 4.82583C3.7275 4.82583 4.80333 3.7275 4.80333 2.40167C4.8025 1.07583 3.72667 0 2.40167 0V0Z" fill="#303030"/>
</g>
</g>
</g>
</g>
</g>
</g>
</g>
<defs>
<clipPath id="clip0_25368_2">
<rect width="1280" height="5025" fill="white" transform="translate(-311 -3413)"/>
</clipPath>
<clipPath id="clip1_25368_2">
<rect width="20" height="20" fill="white"/>
</clipPath>
</defs>
</svg>
